<?xml version="1.0" encoding="UTF-8" standalone="no"?>
<svg
   enable-background="new 0 0 512 512"
   height="512px"
   id="Layer_1"
   version="1.1"
   viewBox="0 0 512 512"
   width="512px"
   xml:space="preserve"
   sodipodi:docname="icon.svg"
   inkscape:version="1.2.2 (732a01da63, 2022-12-09)"
   xmlns:inkscape="http://www.inkscape.org/namespaces/inkscape"
   xmlns:sodipodi="http://sodipodi.sourceforge.net/DTD/sodipodi-0.dtd"
   xmlns="http://www.w3.org/2000/svg"
   xmlns:svg="http://www.w3.org/2000/svg"><defs
     id="defs13"><marker
       style="overflow:visible"
       id="TriangleStart"
       refX="0"
       refY="0"
       orient="auto-start-reverse"
       inkscape:stockid="TriangleStart"
       markerWidth="3.7290001"
       markerHeight="4.3109827"
       viewBox="0 0 5.3244081 6.1553851"
       inkscape:isstock="true"
       inkscape:collect="always"
       preserveAspectRatio="xMidYMid"><path
         transform="scale(0.5)"
         style="fill:context-stroke;fill-rule:evenodd;stroke:context-stroke;stroke-width:1pt"
         d="M 5.77,0 -2.88,5 V -5 Z"
         id="path135" /></marker><linearGradient
       id="SVGID_1_"
       gradientUnits="userSpaceOnUse"
       x1="250.71519"
       y1="2250.2634"
       x2="250.36549"
       y2="2249.9006"
       gradientTransform="matrix(1168.1589,0,0,-1161.3224,-291805.25,2613151.5)">
	<stop
   offset="0.18"
   style="stop-color:#0052CC"
   id="stop246" />
	<stop
   offset="1"
   style="stop-color:#2684FF"
   id="stop248" />
</linearGradient><linearGradient
       id="SVGID_2_"
       gradientUnits="userSpaceOnUse"
       x1="250.78709"
       y1="2250.3098"
       x2="250.38271"
       y2="2249.9143"
       gradientTransform="matrix(1168.1676,0,0,-1161.3223,-292339.59,2613686.5)">
	<stop
   offset="0.18"
   style="stop-color:#0052CC"
   id="stop253" />
	<stop
   offset="1"
   style="stop-color:#2684FF"
   id="stop255" />
</linearGradient></defs><sodipodi:namedview
     id="namedview11"
     pagecolor="#ffffff"
     bordercolor="#000000"
     borderopacity="0.25"
     inkscape:showpageshadow="2"
     inkscape:pageopacity="0.0"
     inkscape:pagecheckerboard="0"
     inkscape:deskcolor="#d1d1d1"
     showgrid="false"
     showguides="true"
     inkscape:zoom="0.80664062"
     inkscape:cx="-170.46005"
     inkscape:cy="220.04843"
     inkscape:window-width="1920"
     inkscape:window-height="1013"
     inkscape:window-x="-9"
     inkscape:window-y="-9"
     inkscape:window-maximized="1"
     inkscape:current-layer="Layer_1"><sodipodi:guide
       position="-538.0339,42.150121"
       orientation="0,-1"
       id="guide3982"
       inkscape:locked="false" /></sodipodi:namedview><g
     id="g3966" /><path
     style="fill:#ffffff;fill-opacity:1;stroke:none;stroke-width:10.9286;stroke-linecap:round;stroke-opacity:1"
     d="M 340.75109,433.63938 291.94325,399.41978 191.51561,399.179 91.087955,398.93823 85.11549,396.10863 c -7.454603,-3.5318 -12.308578,-7.86209 -15.724772,-14.02826 l -2.649337,-4.78199 V 210.49124 43.68412 l 2.676452,-4.831818 C 73.921867,30.721135 82.438137,24.69127 92.440544,22.551287 96.166764,21.754074 137.5373,21.559109 258.8088,21.767249 l 161.40876,0.277027 5.97247,2.829597 c 7.45461,3.531794 12.30857,7.86208 15.72477,14.028246 l 2.64934,4.782001 0.23493,165.80369 0.23493,165.80369 -2.31263,5.06091 c -3.89548,8.52479 -10.08756,13.81027 -20.15007,17.19984 -4.52553,1.52442 -7.75621,1.8368 -18.99649,1.8368 h -13.54359 l -0.23616,34.23498 -0.23614,34.23497 z"
     id="path754"
     sodipodi:nodetypes="ccccsscccssscsscccssscccc" /><g
     id="g536"
     transform="matrix(0.99656395,0,0,0.99656395,43.422131,0.00602413)"><path
       d="M 365.03422,1.7532142 H 61.587412 c -32.324433,0 -58.6338405,24.3166128 -58.6338405,54.2203788 V 367.26548 c 0,29.89191 26.3094075,54.20853 58.6338405,54.20853 H 240.53363 l 129.1296,90.5207 v -90.67806 c 30.17321,-2.19648 54.00483,-25.60023 54.00483,-54.05117 V 55.973593 c 0,-29.903766 -26.30941,-54.2203788 -58.63384,-54.2203788 z M 398.58515,367.26548 c 0.19449,16.03344 -15.05858,29.1267 -33.55201,29.1267 H 344.57925 V 463.7775 L 248.44984,396.39218 H 61.586335 c -18.49882,0 -33.552012,-13.06579 -33.552012,-29.1267 V 55.973593 c 0,-16.072761 15.053192,-29.137472 33.552012,-29.137472 H 365.03314 c 18.49343,0 33.55201,13.065788 33.55201,29.137472 z"
       id="path1124"
       inkscape:label="path1124"
       style="fill:#000000;fill-opacity:1;stroke:none;stroke-width:1.07777;stroke-opacity:1"
       sodipodi:nodetypes="ssssscccssscscccssssssc" /><g
       id="g518"
       transform="matrix(0.16224874,0,0,0.16224874,121.08753,147.28535)"><path
         class="st0"
         d="M 1482.4068,-609.8908 H 521.90678 c 0,239.5 194.1,433.6 433.6,433.6 h 176.90002 v 170.8 c 0.2,239.3 194.1,433.2 433.3,433.3 v -954.4 c 0,-46 -37.3,-83.3 -83.3,-83.3 z"
         id="path244"
         style="fill:#2684ff" /><path
         class="st1"
         d="M 1007.1068,-131.2908 H 46.60678 c 0.1,239.3 194.1,433.2 433.3,433.3 h 176.9 v 171.4 c 0.3,239.3 194.3,433 433.60002,433 v -954.4 c 0.1,-46 -37.2,-83.3 -83.3,-83.3 z"
         id="path251"
         style="fill:url(#SVGID_1_)"
         inkscape:label="path251" /><path
         class="st2"
         d="m 531.60678,347.0092 h -960.5 c 0,239.5 194.1,433.6 433.6,433.6 h 177.5 v 170.8 c 0.2,239 193.7,432.9 432.8,433.3 v -954.4 c -0.1,-46 -37.4,-83.3 -83.4,-83.3 z"
         id="path258"
         style="fill:url(#SVGID_2_)" /></g><g
       id="g3825"
       transform="matrix(0.94263471,0,0,0.94263471,257.44082,-82.529525)"><path
         style="opacity:1;fill:none;fill-opacity:1;stroke:#3d3d3d;stroke-width:9.8;stroke-linecap:round;stroke-dasharray:none;stroke-opacity:1"
         d="m 61.69642,417.78208 h 72.32629"
         id="path3419"
         sodipodi:nodetypes="cc" /><path
         style="opacity:1;fill:none;fill-opacity:1;stroke:#3d3d3d;stroke-width:12.12;stroke-dasharray:none;stroke-opacity:1;marker-start:url(#TriangleStart)"
         d="m 97.859562,450.59062 v 37.88395"
         id="path3484"
         sodipodi:nodetypes="cc" /></g></g></svg>
